HIERARCHY
ROOT Hip
{
	OFFSET -0.187259 0.322806 0.217702
	CHANNELS 6 Xposition Yposition Zposition Xrotation Yrotation Zrotation
	JOINT LowerSpine
	{
		OFFSET -0.047584 0.129458 0.268601
		CHANNELS 6 Xposition Yposition Zposition Xrotation Yrotation Zrotation
		JOINT MiddleSpine
		{
			OFFSET -0.001819 -0.027808 0.235391
			CHANNELS 3 Xrotation Yrotation Zrotation
			JOINT Chest
			{
				OFFSET -0.022077 0.035141 0.295904
				CHANNELS 3 Xrotation Yrotation Zrotation
				JOINT Neck
				{
					OFFSET -0.016945 -0.035887 0.659142
					CHANNELS 6 Xposition Yposition Zposition Xrotation Yrotation Zrotation
					JOINT Head
					{
						OFFSET 0.020082 -0.124289 0.365292
						CHANNELS 3 Xrotation Yrotation Zrotation
						End Site
						{
							OFFSET -0.000662 -0.005406 0.053289
						}
					}
				}
				JOINT LClavicle
				{
					OFFSET 0.098347 -0.218338 0.625145
					CHANNELS 6 Xposition Yposition Zposition Xrotation Yrotation Zrotation
					JOINT LShoulder
					{
						OFFSET 0.294682 0.230461 0.114434
						CHANNELS 3 Xrotation Yrotation Zrotation
						JOINT LForearm
						{
							OFFSET 0.793532 0.231667 0.030210
							CHANNELS 3 Xrotation Yrotation Zrotation
							JOINT LHand
							{
								OFFSET 0.662387 0.191165 0.029518
								CHANNELS 3 Xrotation Yrotation Zrotation
								JOINT LFinger1
								{
									OFFSET 0.277019 -0.000371 0.029136
									CHANNELS 6 Xposition Yposition Zposition Xrotation Yrotation Zrotation
									JOINT LFinger11
									{
										OFFSET 0.101520 0.012008 -0.021501
										CHANNELS 3 Xrotation Yrotation Zrotation
										JOINT LFinger12
										{
											OFFSET 0.069307 0.008194 -0.014682
											CHANNELS 3 Xrotation Yrotation Zrotation
											End Site
											{
												OFFSET 0.051335 0.006970 -0.013620
											}
										}
									}
								}
								JOINT LFinger2
								{
									OFFSET 0.262229 0.065532 0.037240
									CHANNELS 6 Xposition Yposition Zposition Xrotation Yrotation Zrotation
									JOINT LFinger21
									{
										OFFSET 0.118734 0.034257 0.005276
										CHANNELS 3 Xrotation Yrotation Zrotation
										JOINT LFinger22
										{
											OFFSET 0.065812 0.018999 0.002944
											CHANNELS 3 Xrotation Yrotation Zrotation
											End Site
											{
												OFFSET 0.051480 0.014712 -0.001656
											}
										}
									}
								}
								JOINT LFinger3
								{
									OFFSET 0.230346 0.126942 0.032029
									CHANNELS 6 Xposition Yposition Zposition Xrotation Yrotation Zrotation
									JOINT LFinger31
									{
										OFFSET 0.106122 0.037627 -0.000782
										CHANNELS 3 Xrotation Yrotation Zrotation
										JOINT LFinger32
										{
											OFFSET 0.060471 0.021453 -0.000424
											CHANNELS 3 Xrotation Yrotation Zrotation
											End Site
											{
												OFFSET 0.050517 0.017301 -0.004253
											}
										}
									}
								}
								JOINT LFinger4
								{
									OFFSET 0.201165 0.166987 -0.001935
									CHANNELS 6 Xposition Yposition Zposition Xrotation Yrotation Zrotation
									JOINT LFinger41
									{
										OFFSET 0.061467 0.038073 -0.010410
										CHANNELS 3 Xrotation Yrotation Zrotation
										JOINT LFinger42
										{
											OFFSET 0.045073 0.027927 -0.007618
											CHANNELS 3 Xrotation Yrotation Zrotation
											End Site
											{
												OFFSET 0.045616 0.025800 -0.011085
											}
										}
									}
								}
								JOINT LFinger0
								{
									OFFSET 0.065537 -0.022203 -0.042253
									CHANNELS 6 Xposition Yposition Zposition Xrotation Yrotation Zrotation
									JOINT LFinger01
									{
										OFFSET 0.120993 -0.044118 -0.034630
										CHANNELS 3 Xrotation Yrotation Zrotation
										JOINT LFinger02
										{
											OFFSET 0.079092 -0.026727 -0.024648
											CHANNELS 3 Xrotation Yrotation Zrotation
											End Site
											{
												OFFSET 0.049150 -0.015340 -0.014777
											}
										}
									}
								}
							}
						}
					}
				}
				JOINT RClavicle
				{
					OFFSET -0.017030 -0.250910 0.620406
					CHANNELS 6 Xposition Yposition Zposition Xrotation Yrotation Zrotation
					JOINT RShoulder
					{
						OFFSET -0.379418 0.040166 0.086762
						CHANNELS 3 Xrotation Yrotation Zrotation
						JOINT RForearm
						{
							OFFSET -0.797334 -0.217485 -0.035140
							CHANNELS 3 Xrotation Yrotation Zrotation
							JOINT RHand
							{
								OFFSET -0.664732 -0.183522 -0.024998
								CHANNELS 3 Xrotation Yrotation Zrotation
								JOINT RFinger1
								{
									OFFSET -0.237335 -0.145590 0.008009
									CHANNELS 6 Xposition Yposition Zposition Xrotation Yrotation Zrotation
									JOINT RFinger11
									{
										OFFSET -0.090874 -0.042311 -0.029404
										CHANNELS 3 Xrotation Yrotation Zrotation
										JOINT RFinger12
										{
											OFFSET -0.062036 -0.028889 -0.020080
											CHANNELS 3 Xrotation Yrotation Zrotation
											End Site
											{
												OFFSET -0.046211 -0.020570 -0.017627
											}
										}
									}
								}
								JOINT RFinger2
								{
									OFFSET -0.259799 -0.081853 0.015799
									CHANNELS 6 Xposition Yposition Zposition Xrotation Yrotation Zrotation
									JOINT RFinger21
									{
										OFFSET -0.119151 -0.032905 -0.004496
										CHANNELS 3 Xrotation Yrotation Zrotation
										JOINT RFinger22
										{
											OFFSET -0.066049 -0.018226 -0.002472
											CHANNELS 3 Xrotation Yrotation Zrotation
											End Site
											{
												OFFSET -0.051286 -0.014302 -0.005878
											}
										}
									}
								}
								JOINT RFinger3
								{
									OFFSET -0.264385 -0.012736 0.011707
									CHANNELS 6 Xposition Yposition Zposition Xrotation Yrotation Zrotation
									JOINT RFinger31
									{
										OFFSET -0.109735 -0.023316 -0.009649
										CHANNELS 3 Xrotation Yrotation Zrotation
										JOINT RFinger32
										{
											OFFSET -0.062536 -0.013276 -0.005478
											CHANNELS 3 Xrotation Yrotation Zrotation
											End Site
											{
												OFFSET -0.051623 -0.011536 -0.008448
											}
										}
									}
								}
								JOINT RFinger4
								{
									OFFSET -0.257928 0.037371 -0.020794
									CHANNELS 6 Xposition Yposition Zposition Xrotation Yrotation Zrotation
									JOINT RFinger41
									{
										OFFSET -0.071303 0.000588 -0.015862
										CHANNELS 3 Xrotation Yrotation Zrotation
										JOINT RFinger42
										{
											OFFSET -0.052290 0.000438 -0.011615
											CHANNELS 3 Xrotation Yrotation Zrotation
											End Site
											{
												OFFSET -0.051378 -0.001585 -0.015069
											}
										}
									}
								}
								JOINT RFinger0
								{
									OFFSET -0.040868 -0.052242 -0.046621
									CHANNELS 6 Xposition Yposition Zposition Xrotation Yrotation Zrotation
									JOINT RFinger01
									{
										OFFSET -0.077109 -0.100051 -0.042773
										CHANNELS 3 Xrotation Yrotation Zrotation
										JOINT RFinger02
										{
											OFFSET -0.051355 -0.063556 -0.030004
											CHANNELS 3 Xrotation Yrotation Zrotation
											End Site
											{
												OFFSET -0.032618 -0.038425 -0.018136
											}
										}
									}
								}
							}
						}
					}
				}
			}
		}
	}
	JOINT RThigh
	{
		OFFSET -0.304293 -0.067619 0.106440
		CHANNELS 6 Xposition Yposition Zposition Xrotation Yrotation Zrotation
		JOINT RShin
		{
			OFFSET 0.003445 0.081275 -1.204692
			CHANNELS 3 Xrotation Yrotation Zrotation
			JOINT RFoot
			{
				OFFSET 0.024354 0.085728 -1.182076
				CHANNELS 3 Xrotation Yrotation Zrotation
				JOINT RToe
				{
					OFFSET 0.077216 -0.252054 -0.147348
					CHANNELS 3 Xrotation Yrotation Zrotation
					End Site
					{
						OFFSET 0.014655 -0.051408 -0.003426
					}
				}
			}
		}
	}
	JOINT LThigh
	{
		OFFSET 0.285699 0.098957 0.130685
		CHANNELS 6 Xposition Yposition Zposition Xrotation Yrotation Zrotation
		JOINT LShin
		{
			OFFSET 0.046163 0.093336 -1.202946
			CHANNELS 3 Xrotation Yrotation Zrotation
			JOINT LFoot
			{
				OFFSET 0.024354 0.085728 -1.182075
				CHANNELS 3 Xrotation Yrotation Zrotation
				JOINT LToe
				{
					OFFSET 0.077216 -0.252057 -0.147349
					CHANNELS 3 Xrotation Yrotation Zrotation
					End Site
					{
						OFFSET 0.014655 -0.051408 -0.003426
					}
				}
			}
		}
	}
}
MOTION
Frames: 4
Frame Time: 0.041667
-0.349647 0.470089 2.411976 39.850155 15.366459 -9.764148 -0.047584 0.129458 0.268601 0.000001 -0.000007 -0.000001 5.398278 2.251632 -0.297490 20.704581 9.713172 -1.345606 -0.016945 -0.035887 0.659142 18.066556 8.730878 0.551741 5.542518 5.498900 0.358179 0.098347 -0.218338 0.625144 -1.179533 4.093171 0.315276 30.687210 4.221141 -78.467672 0.006197 -0.007402 0.161396 0.000011 -0.000007 0.000037 0.277019 -0.000371 0.029135 0.000004 0.000005 -0.000002 0.000007 -0.000007 -0.000009 0.000007 -0.000025 0.000004 0.262229 0.065532 0.037241 -0.000002 0.000004 -0.000001 -0.000002 -0.000000 -0.000002 0.000000 0.000001 0.000002 0.230345 0.126942 0.032030 -0.000004 0.000002 -0.000005 0.000002 -0.000011 0.000009 0.000004 -0.000002 0.000010 0.201165 0.166987 -0.001934 0.000001 0.000002 -0.000022 0.000008 0.000010 0.000023 -0.000005 0.000022 -0.000001 0.065536 -0.022202 -0.042253 0.000009 0.000006 -0.000012 -0.000012 -0.000018 0.000013 0.000013 -0.000020 0.000005 -0.017030 -0.250909 0.620405 1.732203 -6.135311 -0.316148 37.538979 -5.328968 87.079168 -0.079617 -0.453025 6.226344 -0.000001 0.000001 -0.000003 -0.237335 -0.145590 0.008009 0.000004 0.000011 -0.000004 -0.000006 0.000010 0.000005 -0.000003 0.000015 -0.000000 -0.259800 -0.081853 0.015798 -0.000000 -0.000002 0.000003 0.000001 0.000003 0.000008 0.000001 0.000004 -0.000001 -0.264386 -0.012736 0.011706 0.000004 -0.000003 -0.000004 -0.000000 -0.000006 -0.000004 -0.000002 -0.000005 0.000002 -0.257927 0.037371 -0.020793 0.000000 0.000005 -0.000006 -0.000003 0.000004 0.000008 0.000006 0.000005 -0.000001 -0.040868 -0.052241 -0.046621 -0.000014 0.000005 -0.000005 -0.000002 -0.000007 0.000004 -0.000020 -0.000006 -0.000015 -0.303084 -0.061407 0.007013 -69.998094 -24.099271 -10.205486 28.698450 8.027359 -0.855116 6.615553 1.941246 0.039848 0.000008 -0.000009 -0.000000 0.308523 0.051910 0.117940 106.444550 -160.113568 160.034078 34.838066 9.605222 -1.549036 -8.520333 20.281174 5.366680 0.000001 0.000009 0.000001 
-0.330204 0.453774 2.437613 39.204972 14.822883 -9.104711 -0.047584 0.129457 0.268601 -0.000001 -0.000005 -0.000001 5.296985 2.039615 -0.321231 20.355711 8.304092 -1.107327 -0.016945 -0.035887 0.659142 18.921600 8.985189 0.483335 7.025893 5.588773 0.308944 0.098347 -0.218339 0.625145 -1.323332 4.585145 0.359011 32.930227 5.604973 -77.934371 0.099672 0.265257 -3.593056 0.000009 -0.000006 0.000035 0.277019 -0.000371 0.029135 0.000006 0.000008 -0.000001 0.000007 -0.000008 -0.000007 0.000006 -0.000016 0.000006 0.262230 0.065532 0.037241 0.000001 0.000004 0.000000 0.000000 0.000000 -0.000005 0.000003 0.000002 0.000002 0.230345 0.126942 0.032029 0.000001 0.000004 -0.000005 0.000002 -0.000008 0.000003 0.000001 0.000001 0.000009 0.201166 0.166987 -0.001935 -0.000003 0.000003 -0.000017 0.000009 0.000009 0.000022 -0.000002 0.000016 -0.000004 0.065537 -0.022202 -0.042253 0.000015 0.000007 -0.000019 -0.000007 -0.000009 0.000015 0.000010 -0.000022 0.000011 -0.017030 -0.250910 0.620405 1.849700 -6.553910 -0.331022 39.593466 -4.993690 87.263760 -0.049382 -0.260718 3.603897 -0.000003 0.000005 -0.000002 -0.237335 -0.145590 0.008009 0.000006 0.000012 -0.000001 -0.000007 0.000003 0.000004 -0.000004 -0.000002 0.000003 -0.259800 -0.081853 0.015798 -0.000000 0.000005 -0.000001 -0.000003 -0.000002 0.000010 0.000002 0.000005 0.000001 -0.264386 -0.012736 0.011706 0.000001 0.000004 0.000000 -0.000001 -0.000005 -0.000002 0.000000 -0.000005 0.000005 -0.257927 0.037371 -0.020793 0.000001 0.000007 -0.000002 -0.000002 0.000009 0.000009 -0.000003 0.000006 -0.000001 -0.040867 -0.052241 -0.046621 -0.000006 0.000009 -0.000004 -0.000005 -0.000010 -0.000001 -0.000011 -0.000002 -0.000008 -0.303379 -0.061793 0.007206 -67.327203 -23.044157 -8.577293 26.395652 7.415025 -0.639103 7.701142 2.159164 0.232203 0.000010 -0.000011 -0.000006 0.308523 0.051910 0.117940 110.140523 -160.944064 161.786308 30.527182 8.506130 -1.044088 -7.578564 20.177000 5.469846 0.000002 0.000007 -0.000004 
-0.313126 0.435941 2.457018 38.394542 14.541365 -8.290946 -0.047584 0.129458 0.268601 0.000013 -0.000002 -0.000000 5.180346 1.829539 -0.351453 19.718493 6.493854 -0.873387 -0.016945 -0.035888 0.659143 19.480000 9.119735 0.431824 8.793227 5.732906 0.248091 0.098348 -0.218339 0.625145 -1.466542 5.073383 0.403670 35.378362 7.221477 -77.409286 0.200305 0.507509 -7.008482 0.000009 -0.000004 0.000035 0.277019 -0.000371 0.029135 0.000002 0.000005 -0.000001 0.000005 -0.000009 -0.000006 0.000006 -0.000013 -0.000000 0.262230 0.065532 0.037241 -0.000002 0.000000 0.000000 -0.000001 0.000002 -0.000005 0.000005 0.000004 0.000000 0.230345 0.126942 0.032030 -0.000000 0.000002 -0.000000 -0.000002 -0.000010 0.000003 0.000002 -0.000000 0.000006 0.201165 0.166987 -0.001935 0.000000 0.000002 -0.000015 0.000009 0.000006 0.000020 -0.000006 0.000011 -0.000006 0.065537 -0.022203 -0.042253 0.000009 -0.000002 0.000006 0.000007 -0.000016 0.000018 0.000017 -0.000031 0.000013 -0.017030 -0.250910 0.620406 1.966224 -6.969071 -0.344934 41.780544 -4.669401 87.307938 -0.000542 -0.032586 0.465732 -0.000000 0.000008 -0.000002 -0.237336 -0.145590 0.008009 0.000002 0.000006 -0.000006 -0.000007 0.000010 0.000009 -0.000003 0.000006 0.000004 -0.259799 -0.081853 0.015799 -0.000003 0.000001 0.000005 0.000001 -0.000004 0.000007 -0.000002 0.000006 0.000004 -0.264386 -0.012736 0.011706 0.000002 0.000004 0.000000 0.000001 -0.000006 -0.000007 0.000000 -0.000003 0.000006 -0.257928 0.037371 -0.020793 -0.000002 0.000006 0.000000 -0.000003 -0.000000 0.000011 0.000004 0.000018 -0.000007 -0.040868 -0.052242 -0.046621 -0.000013 0.000006 -0.000007 0.000002 0.000004 -0.000006 -0.000012 0.000011 -0.000029 -0.303704 -0.062174 0.007425 -64.844546 -22.067826 -7.195767 24.618992 6.936003 -0.489384 8.117991 2.265956 0.258411 -0.000033 -0.000021 -0.000001 0.308523 0.051910 0.117939 113.434402 -161.750327 163.378098 26.975769 7.570249 -0.691217 -6.736457 20.063336 5.538293 -0.000001 0.000003 0.000001 
-0.301274 0.417158 2.470897 37.573765 14.576880 -7.536254 -0.047584 0.129458 0.268602 -0.000002 -0.000003 -0.000003 5.049035 1.622769 -0.388186 18.633046 4.276393 -0.721703 -0.016945 -0.035887 0.659143 19.894755 9.198212 0.389482 10.088317 5.798052 0.199665 0.098347 -0.218338 0.625145 -1.603648 5.539120 0.447460 37.987074 8.829081 -77.410625 0.271697 0.656968 -9.157416 0.000007 -0.000004 0.000035 0.277020 -0.000371 0.029136 0.000004 0.000007 -0.000003 0.000006 -0.000003 -0.000011 0.000008 -0.000006 -0.000001 0.262230 0.065532 0.037241 -0.000003 0.000006 0.000004 -0.000002 0.000001 -0.000003 -0.000001 -0.000001 0.000004 0.230346 0.126942 0.032029 -0.000002 0.000004 -0.000007 0.000003 -0.000011 0.000007 0.000001 -0.000001 0.000006 0.201165 0.166987 -0.001934 -0.000003 0.000007 -0.000017 0.000012 0.000006 0.000019 -0.000004 0.000014 -0.000005 0.065537 -0.022203 -0.042253 -0.000001 0.000002 -0.000003 -0.000005 -0.000011 0.000016 0.000012 -0.000020 0.000010 -0.017029 -0.250909 0.620405 2.079646 -7.373272 -0.357666 44.061632 -4.497765 86.806151 0.041623 0.127532 -1.760996 -0.000001 0.000005 -0.000004 -0.237335 -0.145590 0.008009 0.000005 0.000006 -0.000003 -0.000006 0.000010 -0.000002 -0.000001 0.000003 0.000003 -0.259800 -0.081853 0.015799 -0.000001 -0.000000 -0.000001 -0.000002 -0.000001 0.000003 0.000002 0.000002 -0.000001 -0.264386 -0.012736 0.011706 -0.000002 -0.000003 0.000001 -0.000002 -0.000002 -0.000003 0.000002 -0.000003 0.000008 -0.257927 0.037371 -0.020793 0.000000 0.000005 -0.000002 -0.000003 -0.000001 0.000009 0.000006 0.000013 -0.000005 -0.040868 -0.052242 -0.046620 -0.000010 -0.000002 -0.000006 -0.000000 0.000000 0.000007 -0.000009 -0.000011 -0.000018 -0.304060 -0.062552 0.007671 -62.608622 -21.393459 -6.233275 23.177354 6.543462 -0.378878 8.157385 2.341397 0.125865 0.000054 0.000008 -0.000003 0.308524 0.051910 0.117940 115.918870 -162.301837 164.480859 24.660405 6.947252 -0.492720 -5.998156 19.939160 5.572248 0.000004 0.000012 0.000001 
